<svg xmlns="http://www.w3.org/2000/svg" viewBox="0 0 860 360" font-family="Inter,Arial,sans-serif">
  <defs>
    <marker id="arr" viewBox="0 0 10 10" refX="9" refY="5" markerWidth="7" markerHeight="7" orient="auto-start-reverse">
      <path d="M0 0 L10 5 L0 10 z" fill="#64748B"/>
    </marker>
  </defs>
  <rect width="860" height="360" rx="14" fill="#ffffff"/>
  <text x="430" y="36" text-anchor="middle" font-size="20" font-weight="700" fill="#1E4E79">谷歌广告分析 —— 数据管道</text>

  <rect x="24" y="120" width="180" height="76" rx="10" fill="#EFF4FA" stroke="#1E4E79" stroke-width="1.8"/>
  <text x="114" y="150" text-anchor="middle" font-size="15" font-weight="700" fill="#1E4E79">SQL</text>
  <text x="114" y="170" text-anchor="middle" font-size="11" fill="#64748B">10 万+ 投放数据 · 50+ 系列</text>

  <rect x="234" y="120" width="180" height="76" rx="10" fill="#FFF7EE" stroke="#B45309" stroke-width="1.8"/>
  <text x="324" y="150" text-anchor="middle" font-size="15" font-weight="700" fill="#B45309">Pandas</text>
  <text x="324" y="170" text-anchor="middle" font-size="11" fill="#64748B">CTR · CVR · CPA · 周/月环比</text>

  <rect x="444" y="120" width="180" height="76" rx="10" fill="#F0F7F6" stroke="#0E7490" stroke-width="1.8"/>
  <text x="534" y="150" text-anchor="middle" font-size="15" font-weight="700" fill="#0E7490">归因分析</text>
  <text x="534" y="170" text-anchor="middle" font-size="11" fill="#64748B">基准 · 下钻</text>

  <rect x="654" y="120" width="180" height="76" rx="10" fill="#FDF2F2" stroke="#9F1239" stroke-width="1.8"/>
  <text x="744" y="150" text-anchor="middle" font-size="15" font-weight="700" fill="#9F1239">Tableau</text>
  <text x="744" y="170" text-anchor="middle" font-size="11" fill="#64748B">8 KPI × 6 维度</text>

  <line x1="204" y1="158" x2="230" y2="158" stroke="#64748B" stroke-width="1.8" marker-end="url(#arr)"/>
  <line x1="414" y1="158" x2="440" y2="158" stroke="#64748B" stroke-width="1.8" marker-end="url(#arr)"/>
  <line x1="624" y1="158" x2="650" y2="158" stroke="#64748B" stroke-width="1.8" marker-end="url(#arr)"/>

  <rect x="230" y="250" width="400" height="66" rx="12" fill="#F6F8FA" stroke="#CBD5E1" stroke-width="1.4"/>
  <text x="430" y="276" text-anchor="middle" font-size="15" font-weight="700" fill="#1E4E79">周数据准备：3h → 1h</text>
  <text x="430" y="296" text-anchor="middle" font-size="11" fill="#64748B">自动报表管道 · 后续实习生沿用</text>
</svg>
